<svg width="25" height="25" viewBox="0 0 25 25" fill="none" xmlns="http://www.w3.org/2000/svg">
<path d="M5.51594 22.5183H19.2447C20.3263 22.5183 21.2059 21.6387 21.2059 20.557V5.84766C21.2059 4.76603 20.3263 3.88641 19.2447 3.88641H17.2834C17.2834 3.62633 17.1801 3.37691 16.9962 3.193C16.8123 3.0091 16.5629 2.90578 16.3028 2.90578H8.45782C8.19774 2.90578 7.94831 3.0091 7.76441 3.193C7.58051 3.37691 7.47719 3.62633 7.47719 3.88641H5.51594C4.43431 3.88641 3.55469 4.76603 3.55469 5.84766L3.55469 20.557C3.55469 21.6387 4.43431 22.5183 5.51594 22.5183ZM5.51594 5.84766H7.47719V7.80891H17.2834V5.84766H19.2447V20.557H5.51594V5.84766Z" fill="#828282"/>
<path d="M11.3997 14.2673L9.64149 12.5091L8.25488 13.8957L11.3997 17.0405L16.5059 11.9344L15.1193 10.5478L11.3997 14.2673Z" fill="#828282"/>
</svg>
