<svg width="21" height="21" viewBox="0 0 21 21" fill="none" xmlns="http://www.w3.org/2000/svg">
<path d="M17.2449 2.91326H15.2836V1.93264C15.2836 1.67256 15.1803 1.42313 14.9964 1.23923C14.8125 1.05533 14.5631 0.952011 14.303 0.952011C14.0429 0.952011 13.7935 1.05533 13.6096 1.23923C13.4257 1.42313 13.3224 1.67256 13.3224 1.93264V2.91326H7.4386V1.93264C7.4386 1.67256 7.33528 1.42313 7.15138 1.23923C6.96748 1.05533 6.71805 0.952011 6.45797 0.952011C6.1979 0.952011 5.94847 1.05533 5.76457 1.23923C5.58066 1.42313 5.47735 1.67256 5.47735 1.93264V2.91326H3.5161C2.73586 2.91326 1.98758 3.22321 1.43587 3.77492C0.884166 4.32663 0.574219 5.07491 0.574219 5.85514L0.574219 17.6226C0.574219 18.4029 0.884166 19.1512 1.43587 19.7029C1.98758 20.2546 2.73586 20.5645 3.5161 20.5645H17.2449C18.0251 20.5645 18.7734 20.2546 19.3251 19.7029C19.8768 19.1512 20.1867 18.4029 20.1867 17.6226V5.85514C20.1867 5.07491 19.8768 4.32663 19.3251 3.77492C18.7734 3.22321 18.0251 2.91326 17.2449 2.91326V2.91326ZM18.2255 17.6226C18.2255 17.8827 18.1222 18.1322 17.9383 18.3161C17.7544 18.5 17.5049 18.6033 17.2449 18.6033H3.5161C3.25602 18.6033 3.00659 18.5 2.82269 18.3161C2.63879 18.1322 2.53547 17.8827 2.53547 17.6226V10.7583H18.2255V17.6226ZM18.2255 8.79702H2.53547V5.85514C2.53547 5.59506 2.63879 5.34564 2.82269 5.16173C3.00659 4.97783 3.25602 4.87451 3.5161 4.87451H5.47735V5.85514C5.47735 6.11522 5.58066 6.36464 5.76457 6.54855C5.94847 6.73245 6.1979 6.83577 6.45797 6.83577C6.71805 6.83577 6.96748 6.73245 7.15138 6.54855C7.33528 6.36464 7.4386 6.11522 7.4386 5.85514V4.87451H13.3224V5.85514C13.3224 6.11522 13.4257 6.36464 13.6096 6.54855C13.7935 6.73245 14.0429 6.83577 14.303 6.83577C14.5631 6.83577 14.8125 6.73245 14.9964 6.54855C15.1803 6.36464 15.2836 6.11522 15.2836 5.85514V4.87451H17.2449C17.5049 4.87451 17.7544 4.97783 17.9383 5.16173C18.1222 5.34564 18.2255 5.59506 18.2255 5.85514V8.79702Z" fill="#828282"/>
</svg>
