<svg width="30" height="30" viewBox="0 0 30 30" fill="none" xmlns="http://www.w3.org/2000/svg">
<g clip-path="url(#clip0_102_8661)">
<path d="M15.2518 1.97276C12.6658 1.97276 10.1379 2.7396 7.98769 4.1763C5.83751 5.613 4.16166 7.65504 3.17204 10.0442C2.18242 12.4333 1.92349 15.0623 2.428 17.5986C2.9325 20.1349 4.17777 22.4646 6.00634 24.2932C7.83492 26.1218 10.1647 27.367 12.701 27.8715C15.2373 28.3761 17.8662 28.1171 20.2554 27.1275C22.6445 26.1379 24.6865 24.462 26.1232 22.3119C27.5599 20.1617 28.3268 17.6338 28.3268 15.0478C28.3268 11.5801 26.9492 8.25438 24.4972 5.80234C22.0452 3.3503 18.7195 1.97276 15.2518 1.97276ZM15.2518 26.4884C12.989 26.4884 10.7771 25.8174 8.8957 24.5603C7.01429 23.3032 5.54792 21.5164 4.68201 19.4259C3.81609 17.3354 3.58953 15.0351 4.03097 12.8158C4.47241 10.5965 5.56202 8.55802 7.16202 6.95802C8.76202 5.35802 10.8006 4.26841 13.0198 3.82697C15.2391 3.38553 17.5394 3.61209 19.6299 4.47801C21.7204 5.34392 23.5072 6.81029 24.7643 8.6917C26.0214 10.5731 26.6924 12.785 26.6924 15.0478C26.6924 18.082 25.4871 20.992 23.3415 23.1375C21.196 25.2831 18.286 26.4884 15.2518 26.4884Z" fill="#333333"/>
<path d="M15.4886 7.62746C14.603 7.61282 13.7251 7.79341 12.9172 8.15638C12.1094 8.51936 11.3914 9.05581 10.8142 9.72763C10.7341 9.80193 10.6696 9.89157 10.6247 9.99123C10.5798 10.0909 10.5553 10.1985 10.5527 10.3078C10.5527 10.4087 10.5729 10.5085 10.6122 10.6013C10.6515 10.6942 10.7091 10.7782 10.7815 10.8483C10.854 10.9184 10.9398 10.9733 11.0338 11.0096C11.1279 11.0459 11.2283 11.0629 11.3291 11.0596C11.5449 11.0543 11.7514 10.97 11.9093 10.8227C12.346 10.3108 12.8885 9.89972 13.4993 9.61758C14.1101 9.33544 14.7748 9.18898 15.4477 9.18829C17.3763 9.18829 18.5775 10.4304 18.5775 11.9749V12.0158C18.5775 13.8217 17.1393 14.8269 14.8675 14.9985C14.7755 15.002 14.6853 15.025 14.6028 15.0658C14.5203 15.1066 14.4473 15.1644 14.3887 15.2354C14.3301 15.3064 14.2871 15.3889 14.2626 15.4777C14.238 15.5664 14.2325 15.6593 14.2464 15.7503C14.2464 15.7503 14.2464 17.6462 14.2464 17.9976C14.2668 18.1998 14.3617 18.3873 14.5128 18.5233C14.664 18.6593 14.8603 18.7341 15.0636 18.733H15.1535C15.3558 18.7127 15.5432 18.6177 15.6792 18.4666C15.8152 18.3155 15.89 18.1191 15.889 17.9159V16.2324C18.3405 15.8892 20.3263 14.5981 20.3263 11.9177V11.8768C20.3018 9.42527 18.3896 7.62746 15.4886 7.62746Z" fill="#333333"/>
<path d="M15.0713 22.7696C15.6354 22.7696 16.0928 22.3123 16.0928 21.7481C16.0928 21.184 15.6354 20.7266 15.0713 20.7266C14.5071 20.7266 14.0498 21.184 14.0498 21.7481C14.0498 22.3123 14.5071 22.7696 15.0713 22.7696Z" fill="#333333"/>
</g>
<defs>
<clipPath id="clip0_102_8661">
<rect width="29.4188" height="29.4188" fill="white" transform="translate(0.541992 0.337692)"/>
</clipPath>
</defs>
</svg>
