<svg width="23" height="21" viewBox="0 0 23 21" fill="none" xmlns="http://www.w3.org/2000/svg">
<path d="M1.57422 4.01614C1.57422 3.49598 1.78085 2.99713 2.14866 2.62932C2.51646 2.26152 3.01531 2.05489 3.53547 2.05489H9.41922V19.7061H3.53547C3.01531 19.7061 2.51646 19.4995 2.14866 19.1317C1.78085 18.7639 1.57422 18.2651 1.57422 17.7449L1.57422 4.01614ZM13.3417 2.05489L19.2255 2.05489C19.7456 2.05489 20.2445 2.26152 20.6123 2.62932C20.9801 2.99713 21.1867 3.49598 21.1867 4.01614V8.91926H13.3417V2.05489ZM13.3417 12.8418H21.1867V17.7449C21.1867 18.2651 20.9801 18.7639 20.6123 19.1317C20.2445 19.4995 19.7456 19.7061 19.2255 19.7061H13.3417V12.8418Z" stroke="#828282" stroke-width="2.45156" stroke-linecap="round" stroke-linejoin="round"/>
</svg>
