<svg width="9" height="9" viewBox="0 0 9 9" fill="none" xmlns="http://www.w3.org/2000/svg">
<path d="M6.36754 1.89503L7.31948 2.84652M6.97969 1.0568L4.40567 3.63082C4.27267 3.76363 4.18197 3.93284 4.14499 4.11712L3.90723 5.30728L5.09738 5.06907C5.28166 5.03221 5.45065 4.94187 5.58369 4.80883L8.15771 2.23481C8.23506 2.15746 8.29642 2.06564 8.33828 1.96457C8.38014 1.86351 8.40168 1.75519 8.40168 1.6458C8.40168 1.53642 8.38014 1.4281 8.33828 1.32704C8.29642 1.22597 8.23506 1.13415 8.15771 1.0568C8.08036 0.979446 7.98853 0.918089 7.88747 0.876228C7.78641 0.834366 7.67809 0.81282 7.5687 0.81282C7.45931 0.81282 7.35099 0.834366 7.24993 0.876228C7.14887 0.918089 7.05704 0.979446 6.97969 1.0568V1.0568Z" stroke="#2F80ED" stroke-width="0.898907" stroke-linecap="round" stroke-linejoin="round"/>
<path d="M7.50254 6.20701V7.55537C7.50254 7.79378 7.40784 8.02242 7.23926 8.191C7.07068 8.35957 6.84204 8.45428 6.60364 8.45428H1.65965C1.42124 8.45428 1.1926 8.35957 1.02403 8.191C0.855448 8.02242 0.760742 7.79378 0.760742 7.55537L0.760742 2.61139C0.760742 2.37298 0.855448 2.14434 1.02403 1.97576C1.1926 1.80718 1.42124 1.71248 1.65965 1.71248H3.00801" stroke="#2F80ED" stroke-width="0.898907" stroke-linecap="round" stroke-linejoin="round"/>
</svg>
