<svg width="25" height="25" viewBox="0 0 25 25" fill="none" xmlns="http://www.w3.org/2000/svg">
<path d="M12.1939 8.30443C11.3982 8.30443 10.6352 8.6205 10.0725 9.1831C9.50994 9.74571 9.19388 10.5088 9.19388 11.3044C9.19388 12.1001 9.50994 12.8631 10.0725 13.4257C10.6352 13.9883 11.3982 14.3044 12.1939 14.3044C12.9895 14.3044 13.7526 13.9883 14.3152 13.4257C14.8778 12.8631 15.1938 12.1001 15.1938 11.3044C15.1938 10.5088 14.8778 9.74571 14.3152 9.1831C13.7526 8.6205 12.9895 8.30443 12.1939 8.30443ZM10.4439 11.3044C10.4439 10.8403 10.6282 10.3952 10.9564 10.067C11.2846 9.73879 11.7297 9.55442 12.1939 9.55442C12.658 9.55442 13.1031 9.73879 13.4313 10.067C13.7595 10.3952 13.9438 10.8403 13.9438 11.3044C13.9438 11.7685 13.7595 12.2137 13.4313 12.5418C13.1031 12.87 12.658 13.0544 12.1939 13.0544C11.7297 13.0544 11.2846 12.87 10.9564 12.5418C10.6282 12.2137 10.4439 11.7685 10.4439 11.3044ZM18.6913 16.5544L13.6473 21.9093C13.4604 22.1079 13.2347 22.2661 12.9843 22.3742C12.734 22.4824 12.4641 22.5382 12.1914 22.5382C11.9186 22.5382 11.6487 22.4824 11.3984 22.3742C11.148 22.2661 10.9224 22.1079 10.7354 21.9093L5.6914 16.5544H5.7104L5.7019 16.5444L5.6914 16.5319C4.39676 15.0007 3.68798 13.0595 3.69142 11.0544C3.69142 6.35995 7.49689 2.55447 12.1914 2.55447C16.8858 2.55447 20.6913 6.35995 20.6913 11.0544C20.6947 13.0595 19.9859 15.0007 18.6913 16.5319L18.6808 16.5444L18.6723 16.5544H18.6913ZM17.7198 15.7449C18.8339 14.4363 19.4443 12.773 19.4413 11.0544C19.4413 7.05044 16.1953 3.80446 12.1914 3.80446C8.18738 3.80446 4.94141 7.05044 4.94141 11.0544C4.93828 12.773 5.54874 14.4363 6.6629 15.7449L6.8169 15.9264L11.6454 21.0518C11.7155 21.1263 11.8001 21.1856 11.894 21.2262C11.9879 21.2667 12.0891 21.2877 12.1914 21.2877C12.2936 21.2877 12.3948 21.2667 12.4887 21.2262C12.5826 21.1856 12.6672 21.1263 12.7373 21.0518L17.5658 15.9264L17.7198 15.7449Z" fill="#2F80ED"/>
</svg>
