<svg width="23" height="26" viewBox="0 0 23 26" fill="none" xmlns="http://www.w3.org/2000/svg">
<path d="M9.11509 2.36136C9.29824 1.9087 9.6124 1.52104 10.0173 1.24807C10.4222 0.975112 10.8994 0.829285 11.3877 0.829285C11.876 0.829285 12.3532 0.975112 12.7581 1.24807C13.163 1.52104 13.4771 1.9087 13.6603 2.36136C15.4729 2.85987 17.0718 3.93963 18.2113 5.43481C19.3509 6.92999 19.9681 8.75791 19.9682 10.6378V16.3953L22.2138 19.7638C22.337 19.9484 22.4077 20.163 22.4185 20.3846C22.4292 20.6063 22.3796 20.8267 22.2749 21.0224C22.1702 21.2181 22.0144 21.3816 21.824 21.4957C21.6336 21.6097 21.4159 21.6699 21.194 21.6699H15.635C15.4874 22.6911 14.9769 23.6249 14.1968 24.3003C13.4168 24.9758 12.4195 25.3475 11.3877 25.3475C10.3559 25.3475 9.35861 24.9758 8.57857 24.3003C7.79853 23.6249 7.28794 22.6911 7.14036 21.6699H1.58143C1.35952 21.6699 1.14175 21.6097 0.951371 21.4957C0.760993 21.3816 0.605143 21.2181 0.500449 21.0224C0.395755 20.8267 0.346146 20.6063 0.356913 20.3846C0.367679 20.163 0.438419 19.9484 0.561584 19.7638L2.80722 16.3953V10.6378C2.80722 6.68592 5.47942 3.3567 9.11509 2.36136ZM9.65444 21.6699C9.78103 22.0286 10.0158 22.3392 10.3263 22.559C10.6369 22.7787 11.0079 22.8967 11.3883 22.8967C11.7687 22.8967 12.1398 22.7787 12.4503 22.559C12.7608 22.3392 12.9956 22.0286 13.1222 21.6699H9.65321H9.65444ZM11.3877 4.50893C9.7622 4.50893 8.20329 5.15466 7.0539 6.30405C5.9045 7.45344 5.25878 9.01236 5.25878 10.6378V16.7668C5.25884 17.0089 5.18718 17.2456 5.05285 17.4471L3.87242 19.2183H18.9017L17.7213 17.4471C17.5874 17.2455 17.5162 17.0088 17.5166 16.7668V10.6378C17.5166 9.01236 16.8709 7.45344 15.7215 6.30405C14.5721 5.15466 13.0132 4.50893 11.3877 4.50893V4.50893Z" fill="#828282"/>
</svg>
