<svg width="21" height="22" viewBox="0 0 21 22" fill="none" xmlns="http://www.w3.org/2000/svg">
<path d="M19.867 13.6293L18.3616 12.3422C18.4328 11.9055 18.4696 11.4596 18.4696 11.0137C18.4696 10.5679 18.4328 10.122 18.3616 9.6853L19.867 8.39823C19.9806 8.30102 20.0618 8.17155 20.1 8.02704C20.1382 7.88253 20.1315 7.72981 20.0808 7.58921L20.0601 7.52945C19.6456 6.37115 19.025 5.29738 18.2283 4.36004L18.1869 4.31177C18.0903 4.19813 17.9614 4.11643 17.8174 4.07745C17.6734 4.03848 17.521 4.04405 17.3802 4.09343L15.5116 4.75765C14.8221 4.19226 14.0522 3.74638 13.2202 3.43381L12.8594 1.48022C12.8321 1.33322 12.7608 1.19799 12.6549 1.09248C12.549 0.986977 12.4135 0.916197 12.2664 0.889543L12.2043 0.878052C11.0069 0.662008 9.74741 0.662008 8.54997 0.878052L8.48792 0.889543C8.34082 0.916197 8.20531 0.986977 8.09939 1.09248C7.99348 1.19799 7.92217 1.33322 7.89494 1.48022L7.53181 3.443C6.70645 3.75564 5.93783 4.20128 5.25645 4.76225L3.37411 4.09343C3.23337 4.04365 3.08082 4.03788 2.93672 4.07688C2.79263 4.11588 2.66381 4.19781 2.56739 4.31177L2.52602 4.36004C1.73021 5.29805 1.10973 6.37163 0.694241 7.52945L0.673556 7.58921C0.570131 7.8765 0.655169 8.19827 0.887302 8.39823L2.4111 9.69909C2.33985 10.1312 2.30538 10.5725 2.30538 11.0114C2.30538 11.4527 2.33985 11.894 2.4111 12.3238L0.887302 13.6247C0.773754 13.7219 0.692486 13.8513 0.654305 13.9958C0.616124 14.1404 0.622838 14.2931 0.673556 14.4337L0.694241 14.4934C1.11024 15.6518 1.7262 16.7205 2.52602 17.6628L2.56739 17.7111C2.66404 17.8248 2.79287 17.9065 2.93688 17.9454C3.08089 17.9844 3.23333 17.9788 3.37411 17.9294L5.25645 17.2606C5.94136 17.8237 6.7067 18.2696 7.53181 18.5799L7.89494 20.5427C7.92217 20.6897 7.99348 20.8249 8.09939 20.9304C8.20531 21.0359 8.34082 21.1067 8.48792 21.1333L8.54997 21.1448C9.75841 21.362 10.9959 21.362 12.2043 21.1448L12.2664 21.1333C12.4135 21.1067 12.549 21.0359 12.6549 20.9304C12.7608 20.8249 12.8321 20.6897 12.8594 20.5427L13.2202 18.5891C14.0519 18.2773 14.8262 17.83 15.5116 17.2652L17.3802 17.9294C17.5209 17.9792 17.6735 17.985 17.8176 17.946C17.9617 17.907 18.0905 17.8251 18.1869 17.7111L18.2283 17.6628C19.0281 16.7182 19.6441 15.6518 20.0601 14.4934L20.0808 14.4337C20.1842 14.151 20.0991 13.8292 19.867 13.6293V13.6293ZM16.7298 9.9565C16.7872 10.3036 16.8171 10.6598 16.8171 11.016C16.8171 11.3723 16.7872 11.7285 16.7298 12.0756L16.5781 12.9972L18.2949 14.4658C18.0347 15.0655 17.7061 15.6331 17.3158 16.1574L15.183 15.4013L14.4613 15.9942C13.912 16.4447 13.3006 16.7987 12.6387 17.0469L11.7631 17.3755L11.3517 19.6049C10.7025 19.6785 10.0472 19.6785 9.39806 19.6049L8.98666 17.371L8.11788 17.0377C7.46286 16.7895 6.8538 16.4355 6.30909 15.9873L5.58741 15.3921L3.44076 16.1551C3.05004 15.6288 2.72368 15.0611 2.46167 14.4635L4.19691 12.9811L4.04752 12.0618C3.99236 11.7193 3.96248 11.3654 3.96248 11.016C3.96248 10.6644 3.99006 10.3127 4.04752 9.97029L4.19691 9.05095L2.46167 7.56852C2.72138 6.96866 3.05004 6.40326 3.44076 5.87694L5.58741 6.63999L6.30909 6.04472C6.8538 5.59655 7.46286 5.2426 8.11788 4.99438L8.98896 4.66572L9.40036 2.43173C10.0462 2.35818 10.7058 2.35818 11.3539 2.43173L11.7654 4.66112L12.641 4.98978C13.3006 5.23801 13.9143 5.59195 14.4636 6.04243L15.1853 6.6354L17.3181 5.87924C17.7089 6.40556 18.0352 6.97325 18.2972 7.57082L16.5804 9.03946L16.7298 9.9565ZM10.3795 6.74112C8.14546 6.74112 6.33437 8.55221 6.33437 10.7862C6.33437 13.0202 8.14546 14.8313 10.3795 14.8313C12.6134 14.8313 14.4245 13.0202 14.4245 10.7862C14.4245 8.55221 12.6134 6.74112 10.3795 6.74112ZM12.1997 12.6065C11.961 12.8459 11.6773 13.0358 11.3649 13.1652C11.0525 13.2945 10.7176 13.3609 10.3795 13.3603C9.69225 13.3603 9.04641 13.0914 8.55917 12.6065C8.31973 12.3677 8.12987 12.084 8.00049 11.7716C7.87112 11.4592 7.80478 11.1243 7.80531 10.7862C7.80531 10.099 8.07422 9.45316 8.55917 8.96592C9.04641 8.47867 9.69225 8.21206 10.3795 8.21206C11.0667 8.21206 11.7125 8.47867 12.1997 8.96592C12.4392 9.20466 12.629 9.4884 12.7584 9.80079C12.8878 10.1132 12.9541 10.4481 12.9536 10.7862C12.9536 11.4734 12.6847 12.1192 12.1997 12.6065Z" fill="#828282"/>
</svg>
