<svg width="25" height="24" viewBox="0 0 25 24" fill="none" xmlns="http://www.w3.org/2000/svg">
<path d="M12.2785 13.1453C12.8201 13.1453 13.2591 12.7063 13.2591 12.1647C13.2591 11.6231 12.8201 11.1841 12.2785 11.1841C11.7369 11.1841 11.2979 11.6231 11.2979 12.1647C11.2979 12.7063 11.7369 13.1453 12.2785 13.1453Z" stroke="black" stroke-width="1.96125" stroke-linecap="round" stroke-linejoin="round"/>
<path d="M19.1427 13.1453C19.6843 13.1453 20.1234 12.7063 20.1234 12.1647C20.1234 11.6231 19.6843 11.1841 19.1427 11.1841C18.6012 11.1841 18.1621 11.6231 18.1621 12.1647C18.1621 12.7063 18.6012 13.1453 19.1427 13.1453Z" stroke="black" stroke-width="1.96125" stroke-linecap="round" stroke-linejoin="round"/>
<path d="M5.41422 13.1453C5.9558 13.1453 6.39485 12.7063 6.39485 12.1647C6.39485 11.6231 5.9558 11.1841 5.41422 11.1841C4.87263 11.1841 4.43359 11.6231 4.43359 12.1647C4.43359 12.7063 4.87263 13.1453 5.41422 13.1453Z" stroke="black" stroke-width="1.96125" stroke-linecap="round" stroke-linejoin="round"/>
</svg>
